<svg xmlns="http://www.w3.org/2000/svg" width="50.813" height="50.813" viewBox="0 0 50.813 50.813">
  <path id="Icon_awesome-facebook-square" data-name="Icon awesome-facebook-square" d="M45.369,2.25H5.444A5.444,5.444,0,0,0,0,7.694V47.619a5.444,5.444,0,0,0,5.444,5.444H21.011V35.788H13.866V27.656h7.146v-6.2c0-7.049,4.2-10.943,10.624-10.943a43.289,43.289,0,0,1,6.3.549v6.919H34.386c-3.495,0-4.585,2.169-4.585,4.393v5.28h7.8l-1.248,8.131H29.8V53.063H45.369a5.444,5.444,0,0,0,5.444-5.444V7.694A5.444,5.444,0,0,0,45.369,2.25Z" transform="translate(0 -2.25)" fill="#f2f2f2"/>
</svg>
