<svg xmlns="http://www.w3.org/2000/svg" xmlns:xlink="http://www.w3.org/1999/xlink" width="103.669" height="400" viewBox="0 0 103.669 400">
  <defs>
    <radialGradient id="radial-gradient" cx="0.5" cy="0.5" r="0.5" gradientUnits="objectBoundingBox">
      <stop offset="0" stop-color="#3d34ce"/>
      <stop offset="0.106" stop-color="#a170c6"/>
      <stop offset="0.448" stop-color="#f28900"/>
      <stop offset="0.647" stop-color="#f07743"/>
      <stop offset="0.882" stop-color="#d0418d"/>
      <stop offset="1" stop-color="#bb35a9"/>
    </radialGradient>
    <filter id="長方形_1374" x="0" y="0" width="103.669" height="400" filterUnits="userSpaceOnUse">
      <feOffset dy="3" input="SourceAlpha"/>
      <feGaussianBlur stdDeviation="3" result="blur"/>
      <feFlood flood-opacity="0.161"/>
      <feComposite operator="in" in2="blur"/>
      <feComposite in="SourceGraphic"/>
    </filter>
    <radialGradient id="radial-gradient-2" cx="0.5" cy="0.5" r="0.5" gradientUnits="objectBoundingBox">
      <stop offset="0" stop-color="#433acf"/>
      <stop offset="0.244" stop-color="#eb9627"/>
      <stop offset="0.6" stop-color="#ff0"/>
      <stop offset="1" stop-color="#e00cc5"/>
    </radialGradient>
    <filter id="パス_256" x="0.513" y="0.001" width="103.155" height="399.401" filterUnits="userSpaceOnUse">
      <feOffset dy="3" input="SourceAlpha"/>
      <feGaussianBlur stdDeviation="3" result="blur-2"/>
      <feFlood flood-opacity="0.161"/>
      <feComposite operator="in" in2="blur-2"/>
      <feComposite in="SourceGraphic"/>
    </filter>
    <clipPath id="clip-path">
      <rect id="長方形_1377" data-name="長方形 1377" width="188.893" height="53.585" fill="#fff"/>
    </clipPath>
  </defs>
  <g id="グループ_2123" data-name="グループ 2123" transform="translate(-5716.693 973) rotate(-90)">
    <g transform="matrix(0, 1, -1, 0, 973, 5716.69)" filter="url(#長方形_1374)">
      <rect id="長方形_1374-2" data-name="長方形 1374" width="382" height="85.669" transform="translate(9 388) rotate(-90)" fill="url(#radial-gradient)"/>
    </g>
    <g transform="matrix(0, 1, -1, 0, 973, 5716.69)" filter="url(#パス_256)">
      <path id="パス_256-2" data-name="パス 256" d="M0,85.155H381.4V0H0Z" transform="translate(9.51 387.4) rotate(-90)" fill="url(#radial-gradient-2)"/>
    </g>
    <g id="グループ_1834" data-name="グループ 1834" transform="translate(687.522 5743.14)">
      <g id="グループ_1834-2" data-name="グループ 1834" transform="translate(0 0)" clip-path="url(#clip-path)">
        <path id="パス_257" data-name="パス 257" d="M9.722.188C5.855,1.807,1.605,6.379.263,12.117c-1.7,7.271,5.374,10.346,5.955,9.338C6.9,20.27,4.95,19.87,4.548,16.1,4.029,11.224,6.295,5.78,9.146,3.391c.53-.444.5.174.5,1.317,0,2.043-.113,20.387-.113,24.215,0,5.18-.213,6.816-.6,8.432C8.55,38.993,7.924,40.1,8.4,40.526c.53.477,2.792-.658,4.1-2.486a13.626,13.626,0,0,0,2.22-7.685c.119-3.447.114-8.917.119-12.036,0-2.861.048-11.24-.05-16.278C14.765.805,11.339-.491,9.721.186M147.009,24.431a15.831,15.831,0,0,1-1.461,6.283c-1.432,2.874-4.4,3.767-5.666-.365a23.349,23.349,0,0,1-.226-9.157c.5-3.2,1.909-5.62,4.236-5.4,2.295.215,3.369,3.173,3.116,8.642ZM108.316,41.139c-.031,4.475-.736,8.4-2.246,9.537-2.142,1.615-5.021.4-4.425-2.861.528-2.889,3.022-5.84,6.677-9.446C108.321,38.37,108.329,39.192,108.316,41.139ZM107.731,24.4a17.721,17.721,0,0,1-1.461,6.309c-1.432,2.874-4.426,3.773-5.667-.365a20.753,20.753,0,0,1-.225-8.792c.545-2.991,1.865-5.767,4.236-5.767C106.919,15.79,108.055,18.319,107.731,24.4Zm-22.415-.038a16.012,16.012,0,0,1-1.461,6.347c-1.472,2.854-4.382,3.76-5.667-.365a22.118,22.118,0,0,1-.225-9.221c.571-3.251,2-5.557,4.236-5.338,2.294.224,3.41,3.172,3.117,8.578ZM188.038,27.4c-.561,0-.817.578-1.028,1.551-.734,3.384-1.507,4.148-2.5,4.148-1.112,0-2.112-1.675-2.368-5.029a111.82,111.82,0,0,1,.089-12.322c.053-.992-.221-1.974-2.883-2.941-1.145-.416-2.81-1.028-3.639.973a49.784,49.784,0,0,0-3.473,11.964c-.011.094-.127.114-.147-.107a92.994,92.994,0,0,1-.483-9.688,2.9,2.9,0,0,0-1.438-2.772c-.779-.492-3.145-1.362-4-.327-.738.846-1.592,3.124-2.481,5.824-.722,2.194-1.225,3.679-1.225,3.679s.01-5.921.018-8.167a1.151,1.151,0,0,0-.752-1.181,15.791,15.791,0,0,0-3-.611c-.814,0-1.014.455-1.014,1.118,0,.087-.128,7.8-.128,13.186,0,.234,0,.49,0,.761-.451,2.478-1.911,5.84-3.5,5.84s-2.34-1.406-2.34-7.832c0-3.749.113-5.379.168-8.09.033-1.562.095-2.761.091-3.033-.012-.835-1.455-1.255-2.126-1.411a6.293,6.293,0,0,0-1.719-.192,1.073,1.073,0,0,0-1.106,1.047c0,.313,0,.909,0,.909a6.206,6.206,0,0,0-3.07-2.489,5.906,5.906,0,0,0-6.809,2.568,15.621,15.621,0,0,0-2.769,7.915,23.471,23.471,0,0,0,.288,7.192c-.561,2.423-1.6,3.416-2.741,3.416-1.654,0-2.854-2.7-2.714-7.37a42.328,42.328,0,0,1,1.378-8.345,2.7,2.7,0,0,0-.53-2.692c-.535-.612-1.676-.924-3.316-.54-1.168.274-2.838.569-4.367.795a8.833,8.833,0,0,0,.168-1.016c.4-3.4-3.3-3.126-4.477-2.039a4.185,4.185,0,0,0-1.365,2.789,3.289,3.289,0,0,0,1.492,3.212,33.229,33.229,0,0,1-3.494,8.691,37.4,37.4,0,0,1-2.18,3.421q0-.6-.007-1.189c-.018-5.62.057-10.044.09-11.639.033-1.562.1-2.729.092-3-.009-.61-.365-.841-1.107-1.132a7.832,7.832,0,0,0-2.235-.5c-1.015-.079-1.626.459-1.61,1.1,0,.121,0,.858,0,.858a6.2,6.2,0,0,0-3.07-2.488A5.906,5.906,0,0,0,97.9,14.778a16.936,16.936,0,0,0-2.769,7.889,24.193,24.193,0,0,0,.142,6.766c-.382,1.89-1.482,3.867-2.725,3.867-1.59,0-2.494-1.406-2.494-7.832,0-3.749.112-5.379.168-8.09.032-1.562.094-2.761.09-3.033-.012-.835-1.455-1.255-2.126-1.411a6.194,6.194,0,0,0-1.775-.187,1.142,1.142,0,0,0-1.047,1.006V14.7A6.2,6.2,0,0,0,82.3,12.21c-2.405-.714-4.9-.071-6.809,2.568-1.244,1.721-2.251,3.628-2.769,7.852a26.428,26.428,0,0,0-.208,3.431c-.5,3.033-2.686,6.529-4.478,6.529-1.049,0-2.048-2.034-2.048-6.369,0-5.774.358-13.994.418-14.787,0,0,2.264-.038,2.7-.044,1.129-.012,2.152.015,3.656-.062.755-.038,1.481-2.746.7-3.081a26.939,26.939,0,0,0-3.836-.306c-.831-.019-3.146-.19-3.146-.19s.208-5.457.256-6.033c.041-.48-.581-.728-.937-.878A12.831,12.831,0,0,0,63.24.109C61.971-.153,61.394.1,61.282,1.175c-.169,1.627-.257,6.391-.257,6.391-.932,0-4.115-.182-5.047-.182-.866,0-1.8,3.725-.6,3.77,1.377.054,3.779.1,5.37.148,0,0-.071,8.356-.071,10.936,0,.274,0,.539,0,.8a12.614,12.614,0,0,1-3.961,7.032c.663-3.02-.691-5.289-3.129-7.209-.9-.708-2.672-2.047-4.655-3.515A11.984,11.984,0,0,0,51.1,15.931c.722-1.614.753-3.461-1.019-3.868a5.3,5.3,0,0,0-6.062,3.773A4.374,4.374,0,0,0,44.85,20.3c.079.1.166.2.255.306-.661,1.274-1.569,2.989-2.338,4.32-2.135,3.693-3.747,6.614-4.966,6.614-.974,0-.961-2.966-.961-5.743,0-2.394.177-5.993.318-9.72a2.712,2.712,0,0,0-1.6-2.57,7.2,7.2,0,0,0-2.743-1.146c-1.161,0-4.511.158-7.677,9.314-.4,1.154-1.183,3.257-1.183,3.257l.068-11.011a.766.766,0,0,0-.452-.678,7.814,7.814,0,0,0-3.225-.882q-.906,0-.9.84l-.111,17.227a25.41,25.41,0,0,0,.163,3.5,3.682,3.682,0,0,0,.6,1.536,1.711,1.711,0,0,0,1.05.671c.458.095,2.969.417,3.1-.543a35.294,35.294,0,0,1,1.481-7.033c2.053-7.222,4.729-10.745,5.987-12,.22-.219.471-.232.459.126-.054,1.584-.242,5.54-.37,8.9-.341,9,1.3,10.662,3.634,10.662,1.789,0,4.311-1.778,7.015-6.277,1.685-2.8,3.321-5.554,4.5-7.535.819.759,1.738,1.575,2.657,2.447,2.135,2.026,2.837,3.952,2.371,5.78-.355,1.4-1.7,2.835-4.08,1.436-.695-.408-.992-.723-1.691-1.183a1.2,1.2,0,0,0-1.292-.062,4.6,4.6,0,0,0-1.7,2.589c-.283,1.031.749,1.576,1.82,2.054a14.12,14.12,0,0,0,4.168.824c4.924.165,8.869-2.377,11.615-8.935.491,5.664,2.583,8.869,6.218,8.869,2.43,0,4.866-3.141,5.932-6.231a10.943,10.943,0,0,0,1.343,3.281c2.8,4.438,8.234,3.482,10.963-.286a7.011,7.011,0,0,0,.972-1.583,5.136,5.136,0,0,0,4.9,4.8c1.838,0,3.735-.869,5.065-3.862a9.093,9.093,0,0,0,.511.929c2.8,4.438,8.234,3.482,10.963-.286.129-.177.24-.337.338-.481l.08,2.337-2.513,2.3c-4.207,3.859-7.405,6.787-7.64,10.2-.3,4.347,3.224,5.963,5.891,6.175a7.521,7.521,0,0,0,6.75-3.53c1.312-1.928,2.17-6.077,2.107-10.174-.025-1.641-.066-3.727-.1-5.963a47.718,47.718,0,0,0,4.678-6.427,48.6,48.6,0,0,0,4.38-9.378s1.556.014,3.217-.1c.532-.035.684.074.585.464-.118.47-2.1,8.106-.292,13.194a6.376,6.376,0,0,0,5.678,4.6c1.935,0,3.786-1.461,4.778-3.631a7.692,7.692,0,0,0,.381.692c2.8,4.438,8.215,3.477,10.964-.285a11.235,11.235,0,0,0,.972-1.583,5.332,5.332,0,0,0,5.094,4.82c1.709,0,3.33-.7,4.645-3.813a14.139,14.139,0,0,0,.279,2.845c.083.216.569.487.922.618a7.054,7.054,0,0,0,3.747.186c.409-.082.727-.41.77-1.257.115-2.222.044-5.956.718-8.731a25.7,25.7,0,0,1,2.686-7.358c.28-.5.6-.584.608-.053.024,1.073.077,4.224.515,8.458a19.27,19.27,0,0,0,1.082,5.537,3.047,3.047,0,0,0,3.055,1.744c.6,0,1.864-.167,1.751-1.226a33.819,33.819,0,0,1,1.157-8.3,40.41,40.41,0,0,1,2.38-6.693c.161-.365.237-.077.234-.021-.092,2.063-.3,8.813.542,12.5,1.139,5,4.435,5.56,5.584,5.56,2.452,0,4.458-1.866,5.133-6.774.163-1.181-.078-2.094-.8-2.094" transform="translate(0 0)" fill="#fff"/>
      </g>
    </g>
  </g>
</svg>
