<svg xmlns="http://www.w3.org/2000/svg" width="50.841" height="50.83" viewBox="0 0 50.841 50.83">
  <path id="Icon_awesome-instagram" data-name="Icon awesome-instagram" d="M25.421,14.62A13.032,13.032,0,1,0,38.453,27.653,13.012,13.012,0,0,0,25.421,14.62Zm0,21.5a8.473,8.473,0,1,1,8.473-8.473A8.488,8.488,0,0,1,25.421,36.125Zm16.6-22.038a3.04,3.04,0,1,1-3.04-3.04A3.033,3.033,0,0,1,42.026,14.087Zm8.631,3.085c-.193-4.072-1.123-7.679-4.106-10.65S39.973,2.62,35.9,2.416c-4.2-.238-16.775-.238-20.972,0-4.06.193-7.667,1.123-10.65,4.095S.378,13.089.173,17.161c-.238,4.2-.238,16.775,0,20.972C.366,42.2,1.3,45.811,4.279,48.783s6.578,3.9,10.65,4.106c4.2.238,16.775.238,20.972,0,4.072-.193,7.679-1.123,10.65-4.106s3.9-6.578,4.106-10.65c.238-4.2.238-16.764,0-20.96ZM45.236,42.636A8.578,8.578,0,0,1,40.4,47.467c-3.346,1.327-11.285,1.021-14.983,1.021s-11.648.295-14.983-1.021a8.578,8.578,0,0,1-4.832-4.832C4.279,39.29,4.585,31.35,4.585,27.653S4.291,16,5.606,12.67a8.578,8.578,0,0,1,4.832-4.832c3.346-1.327,11.285-1.021,14.983-1.021S37.069,6.522,40.4,7.838a8.578,8.578,0,0,1,4.832,4.832c1.327,3.346,1.021,11.285,1.021,14.983S46.563,39.3,45.236,42.636Z" transform="translate(0.005 -2.238)" fill="#f2f2f2"/>
</svg>
