<svg xmlns="http://www.w3.org/2000/svg" width="58.072" height="47.165" viewBox="0 0 58.072 47.165">
  <path id="Icon_awesome-twitter" data-name="Icon awesome-twitter" d="M52.1,15.135c.037.516.037,1.032.037,1.548,0,15.734-11.975,33.863-33.863,33.863A33.633,33.633,0,0,1,0,45.2a24.622,24.622,0,0,0,2.874.147A23.836,23.836,0,0,0,17.65,40.265,11.923,11.923,0,0,1,6.522,32.011,15.009,15.009,0,0,0,8.77,32.2,12.588,12.588,0,0,0,11.9,31.79,11.9,11.9,0,0,1,2.358,20.11v-.147a11.986,11.986,0,0,0,5.38,1.511A11.92,11.92,0,0,1,4.053,5.555a33.83,33.83,0,0,0,24.54,12.454,13.435,13.435,0,0,1-.295-2.727A11.913,11.913,0,0,1,48.9,7.139,23.432,23.432,0,0,0,56.45,4.265a11.87,11.87,0,0,1-5.232,6.559,23.859,23.859,0,0,0,6.854-1.842A25.584,25.584,0,0,1,52.1,15.135Z" transform="translate(0 -3.381)" fill="#f2f2f2"/>
</svg>
