<svg xmlns="http://www.w3.org/2000/svg" xmlns:xlink="http://www.w3.org/1999/xlink" width="411.759" height="446.229" viewBox="0 0 411.759 446.229">
  <defs>
    <linearGradient id="linear-gradient" x1="-17.408" y1="0.074" x2="26.086" y2="0.962" gradientUnits="objectBoundingBox">
      <stop offset="0" stop-color="#b94747"/>
      <stop offset="0.682" stop-color="#c5c2c2"/>
      <stop offset="1" stop-color="#e9e2d3"/>
    </linearGradient>
  </defs>
  <g id="グループ_2210" data-name="グループ 2210" transform="translate(-336.848 -830)">
    <g id="グループ_2209" data-name="グループ 2209">
      <ellipse id="楕円形_6" data-name="楕円形 6" cx="166.083" cy="166.083" rx="166.083" ry="166.083" transform="translate(416.442 830)" fill="#fff"/>
      <ellipse id="楕円形_7" data-name="楕円形 7" cx="130.673" cy="130.359" rx="130.673" ry="130.359" transform="translate(336.848 1015.511)" fill="#fff"/>
    </g>
    <path id="パス_3263" data-name="パス 3263" d="M1.126,0A1.144,1.144,0,0,1,2.264,1.132l2.2,398.345A1.114,1.114,0,0,1,3.338,400.6,1.144,1.144,0,0,1,2.2,399.465L0,1.119A1.114,1.114,0,0,1,1.126,0Z" transform="translate(713.267 920.447) rotate(59)" fill="url(#linear-gradient)"/>
    <path id="パス_3262" data-name="パス 3262" d="M1.12,0A1.145,1.145,0,0,1,2.254,1.137L4.385,357.345a1.113,1.113,0,0,1-1.12,1.124,1.145,1.145,0,0,1-1.134-1.138L0,1.124A1.113,1.113,0,0,1,1.12,0Z" transform="matrix(-0.799, -0.602, 0.602, -0.799, 468.915, 1165.62)" fill="url(#linear-gradient)"/>
  </g>
</svg>
